<?xml version="1.0" encoding="UTF-8" standalone="no"?><!DOCTYPE svg PUBLIC "-//W3C//DTD SVG 1.1//EN" "http://www.w3.org/Graphics/SVG/1.1/DTD/svg11.dtd"><!-- Generated by graphviz version 2.40.1 (20161225.0304)
 --><!-- Title: MissionariesCannibals Pages: 1 --><svg xmlns="http://www.w3.org/2000/svg" xmlns:xlink="http://www.w3.org/1999/xlink" width="713pt" height="903pt" viewBox="0.00 0.00 712.91 903.20">
<g id="graph0" class="graph" transform="scale(1 1) rotate(0) translate(4 899.2)">
<title>MissionariesCannibals</title>
<polygon fill="#ffffff" stroke="transparent" points="-4,4 -4,-899.2 708.9078,-899.2 708.9078,4 -4,4"/>
<!-- L (3, 3, 1)\n R (0, 0, 0) -->
<g id="node1" class="node">
<title>L (3, 3, 1)\n R (0, 0, 0)</title>
<polygon fill="#ffff00" stroke="#ffff00" points="266.4875,-895.0019 190.1703,-895.0019 190.1703,-853.7981 266.4875,-853.7981 266.4875,-895.0019"/>
<text text-anchor="middle" x="228.3289" y="-878.6" font-family="Times,serif" font-size="14.00" fill="#000000">L (3, 3, 1)</text>
<text text-anchor="middle" x="228.3289" y="-861.8" font-family="Times,serif" font-size="14.00" fill="#000000"> R (0, 0, 0)</text>
</g>
<!-- L (1, 3, 0)\n R (2, 0, 1) -->
<g id="node2" class="node">
<title>L (1, 3, 0)\n R (2, 0, 1)</title>
<polygon fill="#ff0000" stroke="#ff0000" points="76.4875,-817.4019 .1703,-817.4019 .1703,-776.1981 76.4875,-776.1981 76.4875,-817.4019"/>
<text text-anchor="middle" x="38.3289" y="-801" font-family="Times,serif" font-size="14.00" fill="#000000">L (1, 3, 0)</text>
<text text-anchor="middle" x="38.3289" y="-784.2" font-family="Times,serif" font-size="14.00" fill="#000000"> R (2, 0, 1)</text>
</g>
<!-- L (3, 3, 1)\n R (0, 0, 0)&#45;&gt;L (1, 3, 0)\n R (2, 0, 1) -->
<g id="edge3" class="edge">
<title>L (3, 3, 1)\n R (0, 0, 0)-&gt;L (1, 3, 0)\n R (2, 0, 1)</title>
<path fill="none" stroke="#000000" d="M189.9384,-859.385C161.298,-848.1007 121.256,-832.1495 86.3289,-817.6 86.2293,-817.5585 86.1297,-817.517 86.0299,-817.4754"/>
<polygon fill="#000000" stroke="#000000" points="87.1136,-814.134 76.5393,-813.474 84.3941,-820.5841 87.1136,-814.134"/>
</g>
<!-- L (2, 3, 0)\n R (1, 0, 1) -->
<g id="node3" class="node">
<title>L (2, 3, 0)\n R (1, 0, 1)</title>
<polygon fill="#ff0000" stroke="#ff0000" points="171.4875,-817.4019 95.1703,-817.4019 95.1703,-776.1981 171.4875,-776.1981 171.4875,-817.4019"/>
<text text-anchor="middle" x="133.3289" y="-801" font-family="Times,serif" font-size="14.00" fill="#000000">L (2, 3, 0)</text>
<text text-anchor="middle" x="133.3289" y="-784.2" font-family="Times,serif" font-size="14.00" fill="#000000"> R (1, 0, 1)</text>
</g>
<!-- L (3, 3, 1)\n R (0, 0, 0)&#45;&gt;L (2, 3, 0)\n R (1, 0, 1) -->
<g id="edge2" class="edge">
<title>L (3, 3, 1)\n R (0, 0, 0)-&gt;L (2, 3, 0)\n R (1, 0, 1)</title>
<path fill="none" stroke="#000000" d="M202.8706,-853.6046C191.796,-844.5584 178.6673,-833.8343 166.8166,-824.1542"/>
<polygon fill="#000000" stroke="#000000" points="168.8163,-821.2683 158.8574,-817.6528 164.3879,-826.6896 168.8163,-821.2683"/>
</g>
<!-- L (2, 2, 0)\n R (1, 1, 1) -->
<g id="node13" class="node">
<title>L (2, 2, 0)\n R (1, 1, 1)</title>
<polygon fill="none" stroke="#000000" points="266.4875,-817.4019 190.1703,-817.4019 190.1703,-776.1981 266.4875,-776.1981 266.4875,-817.4019"/>
<text text-anchor="middle" x="228.3289" y="-801" font-family="Times,serif" font-size="14.00" fill="#000000">L (2, 2, 0)</text>
<text text-anchor="middle" x="228.3289" y="-784.2" font-family="Times,serif" font-size="14.00" fill="#000000"> R (1, 1, 1)</text>
</g>
<!-- L (3, 3, 1)\n R (0, 0, 0)&#45;&gt;L (2, 2, 0)\n R (1, 1, 1) -->
<g id="edge1" class="edge">
<title>L (3, 3, 1)\n R (0, 0, 0)-&gt;L (2, 2, 0)\n R (1, 1, 1)</title>
<path fill="none" stroke="#000000" d="M228.3289,-853.6046C228.3289,-845.6891 228.3289,-836.4891 228.3289,-827.8278"/>
<polygon fill="#000000" stroke="#000000" points="231.829,-827.6527 228.3289,-817.6528 224.829,-827.6528 231.829,-827.6527"/>
</g>
<!-- L (3, 2, 0)\n R (0, 1, 1) -->
<g id="node14" class="node">
<title>L (3, 2, 0)\n R (0, 1, 1)</title>
<polygon fill="none" stroke="#000000" points="361.4875,-817.4019 285.1703,-817.4019 285.1703,-776.1981 361.4875,-776.1981 361.4875,-817.4019"/>
<text text-anchor="middle" x="323.3289" y="-801" font-family="Times,serif" font-size="14.00" fill="#000000">L (3, 2, 0)</text>
<text text-anchor="middle" x="323.3289" y="-784.2" font-family="Times,serif" font-size="14.00" fill="#000000"> R (0, 1, 1)</text>
</g>
<!-- L (3, 3, 1)\n R (0, 0, 0)&#45;&gt;L (3, 2, 0)\n R (0, 1, 1) -->
<g id="edge4" class="edge">
<title>L (3, 3, 1)\n R (0, 0, 0)-&gt;L (3, 2, 0)\n R (0, 1, 1)</title>
<path fill="none" stroke="#000000" d="M253.7872,-853.6046C264.8618,-844.5584 277.9905,-833.8343 289.8412,-824.1542"/>
<polygon fill="#000000" stroke="#000000" points="292.2699,-826.6896 297.8004,-817.6528 287.8415,-821.2683 292.2699,-826.6896"/>
</g>
<!-- L (3, 1, 0)\n R (0, 2, 1) -->
<g id="node15" class="node">
<title>L (3, 1, 0)\n R (0, 2, 1)</title>
<polygon fill="none" stroke="#000000" points="456.4875,-817.4019 380.1703,-817.4019 380.1703,-776.1981 456.4875,-776.1981 456.4875,-817.4019"/>
<text text-anchor="middle" x="418.3289" y="-801" font-family="Times,serif" font-size="14.00" fill="#000000">L (3, 1, 0)</text>
<text text-anchor="middle" x="418.3289" y="-784.2" font-family="Times,serif" font-size="14.00" fill="#000000"> R (0, 2, 1)</text>
</g>
<!-- L (3, 3, 1)\n R (0, 0, 0)&#45;&gt;L (3, 1, 0)\n R (0, 2, 1) -->
<g id="edge5" class="edge">
<title>L (3, 3, 1)\n R (0, 0, 0)-&gt;L (3, 1, 0)\n R (0, 2, 1)</title>
<path fill="none" stroke="#000000" d="M266.7194,-859.385C295.3598,-848.1007 335.4018,-832.1495 370.3289,-817.6 370.4285,-817.5585 370.5281,-817.517 370.6279,-817.4754"/>
<polygon fill="#000000" stroke="#000000" points="372.2637,-820.5841 380.1185,-813.474 369.5442,-814.134 372.2637,-820.5841"/>
</g>
<!-- L (2, 3, 1)\nR (1, 0, 0) -->
<g id="node4" class="node">
<title>L (2, 3, 1)\nR (1, 0, 0)</title>
<polygon fill="#ff0000" stroke="#ff0000" points="219.9869,-739.8019 146.6709,-739.8019 146.6709,-698.5981 219.9869,-698.5981 219.9869,-739.8019"/>
<text text-anchor="middle" x="183.3289" y="-723.4" font-family="Times,serif" font-size="14.00" fill="#000000">L (2, 3, 1)</text>
<text text-anchor="middle" x="183.3289" y="-706.6" font-family="Times,serif" font-size="14.00" fill="#000000">R (1, 0, 0)</text>
</g>
<!-- L (2, 1, 0)\nR (1, 3, 1) -->
<g id="node5" class="node">
<title>L (2, 1, 0)\nR (1, 3, 1)</title>
<polygon fill="#ff0000" stroke="#ff0000" points="245.9869,-662.2019 172.6709,-662.2019 172.6709,-620.9981 245.9869,-620.9981 245.9869,-662.2019"/>
<text text-anchor="middle" x="209.3289" y="-645.8" font-family="Times,serif" font-size="14.00" fill="#000000">L (2, 1, 0)</text>
<text text-anchor="middle" x="209.3289" y="-629" font-family="Times,serif" font-size="14.00" fill="#000000">R (1, 3, 1)</text>
</g>
<!-- L (1, 2, 0)\nR (2, 1, 1) -->
<g id="node6" class="node">
<title>L (1, 2, 0)\nR (2, 1, 1)</title>
<polygon fill="#ff0000" stroke="#ff0000" points="275.9869,-351.8019 202.6709,-351.8019 202.6709,-310.5981 275.9869,-310.5981 275.9869,-351.8019"/>
<text text-anchor="middle" x="239.3289" y="-335.4" font-family="Times,serif" font-size="14.00" fill="#000000">L (1, 2, 0)</text>
<text text-anchor="middle" x="239.3289" y="-318.6" font-family="Times,serif" font-size="14.00" fill="#000000">R (2, 1, 1)</text>
</g>
<!-- L (2, 0, 0)\nR (1, 3, 1) -->
<g id="node7" class="node">
<title>L (2, 0, 0)\nR (1, 3, 1)</title>
<polygon fill="#ff0000" stroke="#ff0000" points="366.9869,-351.8019 293.6709,-351.8019 293.6709,-310.5981 366.9869,-310.5981 366.9869,-351.8019"/>
<text text-anchor="middle" x="330.3289" y="-335.4" font-family="Times,serif" font-size="14.00" fill="#000000">L (2, 0, 0)</text>
<text text-anchor="middle" x="330.3289" y="-318.6" font-family="Times,serif" font-size="14.00" fill="#000000">R (1, 3, 1)</text>
</g>
<!-- L (2, 1, 0)\nR (1, 2, 1) -->
<g id="node8" class="node">
<title>L (2, 1, 0)\nR (1, 2, 1)</title>
<polygon fill="#ff0000" stroke="#ff0000" points="626.9869,-351.8019 553.6709,-351.8019 553.6709,-310.5981 626.9869,-310.5981 626.9869,-351.8019"/>
<text text-anchor="middle" x="590.3289" y="-335.4" font-family="Times,serif" font-size="14.00" fill="#000000">L (2, 1, 0)</text>
<text text-anchor="middle" x="590.3289" y="-318.6" font-family="Times,serif" font-size="14.00" fill="#000000">R (1, 2, 1)</text>
</g>
<!-- L (1, 3, 1)\nR (2, 0, 0) -->
<g id="node9" class="node">
<title>L (1, 3, 1)\nR (2, 0, 0)</title>
<polygon fill="#ff0000" stroke="#ff0000" points="625.9869,-274.2019 552.6709,-274.2019 552.6709,-232.9981 625.9869,-232.9981 625.9869,-274.2019"/>
<text text-anchor="middle" x="589.3289" y="-257.8" font-family="Times,serif" font-size="14.00" fill="#000000">L (1, 3, 1)</text>
<text text-anchor="middle" x="589.3289" y="-241" font-family="Times,serif" font-size="14.00" fill="#000000">R (2, 0, 0)</text>
</g>
<!-- L (1, 2, 1)\nR (2, 1, 0) -->
<g id="node10" class="node">
<title>L (1, 2, 1)\nR (2, 1, 0)</title>
<polygon fill="#ff0000" stroke="#ff0000" points="431.9869,-119.0019 358.6709,-119.0019 358.6709,-77.7981 431.9869,-77.7981 431.9869,-119.0019"/>
<text text-anchor="middle" x="395.3289" y="-102.6" font-family="Times,serif" font-size="14.00" fill="#000000">L (1, 2, 1)</text>
<text text-anchor="middle" x="395.3289" y="-85.8" font-family="Times,serif" font-size="14.00" fill="#000000">R (2, 1, 0)</text>
</g>
<!-- L (2, 1, 1)\nR (1, 2, 0) -->
<g id="node11" class="node">
<title>L (2, 1, 1)\nR (1, 2, 0)</title>
<polygon fill="#ff0000" stroke="#ff0000" points="704.9869,-119.0019 631.6709,-119.0019 631.6709,-77.7981 704.9869,-77.7981 704.9869,-119.0019"/>
<text text-anchor="middle" x="668.3289" y="-102.6" font-family="Times,serif" font-size="14.00" fill="#000000">L (2, 1, 1)</text>
<text text-anchor="middle" x="668.3289" y="-85.8" font-family="Times,serif" font-size="14.00" fill="#000000">R (1, 2, 0)</text>
</g>
<!-- L (0, 0, 0)\nR (3, 3, 1) -->
<g id="node12" class="node">
<title>L (0, 0, 0)\nR (3, 3, 1)</title>
<polygon fill="#00ff00" stroke="#00ff00" points="522.9869,-41.4019 449.6709,-41.4019 449.6709,-.1981 522.9869,-.1981 522.9869,-41.4019"/>
<text text-anchor="middle" x="486.3289" y="-25" font-family="Times,serif" font-size="14.00" fill="#000000">L (0, 0, 0)</text>
<text text-anchor="middle" x="486.3289" y="-8.2" font-family="Times,serif" font-size="14.00" fill="#000000">R (3, 3, 1)</text>
</g>
<!-- L (2, 2, 0)\n R (1, 1, 1)&#45;&gt;L (2, 3, 1)\nR (1, 0, 0) -->
<g id="edge6" class="edge">
<title>L (2, 2, 0)\n R (1, 1, 1)-&gt;L (2, 3, 1)\nR (1, 0, 0)</title>
<path fill="none" stroke="#000000" d="M216.2697,-776.0046C211.4274,-767.6542 205.756,-757.8742 200.4969,-748.8053"/>
<polygon fill="#000000" stroke="#000000" points="203.4657,-746.9477 195.4214,-740.0528 197.4102,-750.4593 203.4657,-746.9477"/>
</g>
<!-- L (3, 2, 1)\nR (0, 1, 0) -->
<g id="node16" class="node">
<title>L (3, 2, 1)\nR (0, 1, 0)</title>
<polygon fill="none" stroke="#000000" points="310.9869,-739.8019 237.6709,-739.8019 237.6709,-698.5981 310.9869,-698.5981 310.9869,-739.8019"/>
<text text-anchor="middle" x="274.3289" y="-723.4" font-family="Times,serif" font-size="14.00" fill="#000000">L (3, 2, 1)</text>
<text text-anchor="middle" x="274.3289" y="-706.6" font-family="Times,serif" font-size="14.00" fill="#000000">R (0, 1, 0)</text>
</g>
<!-- L (2, 2, 0)\n R (1, 1, 1)&#45;&gt;L (3, 2, 1)\nR (0, 1, 0) -->
<g id="edge7" class="edge">
<title>L (2, 2, 0)\n R (1, 1, 1)-&gt;L (3, 2, 1)\nR (0, 1, 0)</title>
<path fill="none" stroke="#000000" d="M240.6561,-776.0046C245.606,-767.6542 251.4035,-757.8742 256.7793,-748.8053"/>
<polygon fill="#000000" stroke="#000000" points="259.8792,-750.4397 261.9677,-740.0528 253.8577,-746.8702 259.8792,-750.4397"/>
</g>
<!-- L (3, 2, 1)\nR (0, 1, 0)&#45;&gt;L (2, 1, 0)\nR (1, 3, 1) -->
<g id="edge8" class="edge">
<title>L (3, 2, 1)\nR (0, 1, 0)-&gt;L (2, 1, 0)\nR (1, 3, 1)</title>
<path fill="none" stroke="#000000" d="M256.9101,-698.4046C249.697,-689.7933 241.2104,-679.6616 233.4168,-670.3573"/>
<polygon fill="#000000" stroke="#000000" points="235.9002,-667.8713 226.7958,-662.4528 230.534,-672.3662 235.9002,-667.8713"/>
</g>
<!-- L (3, 2, 1)\nR (0, 1, 0)&#45;&gt;L (1, 2, 0)\nR (2, 1, 1) -->
<g id="edge10" class="edge">
<title>L (3, 2, 1)\nR (0, 1, 0)-&gt;L (1, 2, 0)\nR (2, 1, 1)</title>
<path fill="none" stroke="#000000" d="M274.3289,-698.3644C274.3289,-668.5756 274.3289,-612.0958 274.3289,-564 274.3289,-564 274.3289,-564 274.3289,-486.4 274.3289,-442.2278 260.6704,-392.6781 250.4181,-361.7074"/>
<polygon fill="#000000" stroke="#000000" points="253.6328,-360.2895 247.0965,-351.9511 247.0063,-362.5456 253.6328,-360.2895"/>
</g>
<!-- L (3, 0, 0)\nR (0, 3, 1) -->
<g id="node17" class="node">
<title>L (3, 0, 0)\nR (0, 3, 1)</title>
<polygon fill="none" stroke="#000000" points="394.9869,-662.2019 321.6709,-662.2019 321.6709,-620.9981 394.9869,-620.9981 394.9869,-662.2019"/>
<text text-anchor="middle" x="358.3289" y="-645.8" font-family="Times,serif" font-size="14.00" fill="#000000">L (3, 0, 0)</text>
<text text-anchor="middle" x="358.3289" y="-629" font-family="Times,serif" font-size="14.00" fill="#000000">R (0, 3, 1)</text>
</g>
<!-- L (3, 2, 1)\nR (0, 1, 0)&#45;&gt;L (3, 0, 0)\nR (0, 3, 1) -->
<g id="edge9" class="edge">
<title>L (3, 2, 1)\nR (0, 1, 0)-&gt;L (3, 0, 0)\nR (0, 3, 1)</title>
<path fill="none" stroke="#000000" d="M296.8394,-698.4046C306.4434,-689.5323 317.7944,-679.0461 328.113,-669.5138"/>
<polygon fill="#000000" stroke="#000000" points="330.7859,-671.8094 335.7563,-662.4528 326.0359,-666.6676 330.7859,-671.8094"/>
</g>
<!-- L (3, 1, 1)\nR (0, 2, 0) -->
<g id="node18" class="node">
<title>L (3, 1, 1)\nR (0, 2, 0)</title>
<polygon fill="none" stroke="#000000" points="413.9869,-584.6019 340.6709,-584.6019 340.6709,-543.3981 413.9869,-543.3981 413.9869,-584.6019"/>
<text text-anchor="middle" x="377.3289" y="-568.2" font-family="Times,serif" font-size="14.00" fill="#000000">L (3, 1, 1)</text>
<text text-anchor="middle" x="377.3289" y="-551.4" font-family="Times,serif" font-size="14.00" fill="#000000">R (0, 2, 0)</text>
</g>
<!-- L (3, 0, 0)\nR (0, 3, 1)&#45;&gt;L (3, 1, 1)\nR (0, 2, 0) -->
<g id="edge11" class="edge">
<title>L (3, 0, 0)\nR (0, 3, 1)-&gt;L (3, 1, 1)\nR (0, 2, 0)</title>
<path fill="none" stroke="#000000" d="M363.4206,-620.8046C365.3799,-612.8022 367.6608,-603.4867 369.8017,-594.7425"/>
<polygon fill="#000000" stroke="#000000" points="373.2445,-595.3983 372.2232,-584.8528 366.4453,-593.7335 373.2445,-595.3983"/>
</g>
<!-- L (3, 1, 1)\nR (0, 2, 0)&#45;&gt;L (2, 0, 0)\nR (1, 3, 1) -->
<g id="edge12" class="edge">
<title>L (3, 1, 1)\nR (0, 2, 0)-&gt;L (2, 0, 0)\nR (1, 3, 1)</title>
<path fill="none" stroke="#000000" d="M373.158,-543.3406C364.8486,-502.1827 346.1944,-409.785 336.4775,-361.655"/>
<polygon fill="#000000" stroke="#000000" points="339.9003,-360.9227 334.4905,-351.8131 333.0388,-362.308 339.9003,-360.9227"/>
</g>
<!-- L (3, 1, 1)\nR (0, 2, 0)&#45;&gt;L (2, 1, 0)\nR (1, 2, 1) -->
<g id="edge14" class="edge">
<title>L (3, 1, 1)\nR (0, 2, 0)-&gt;L (2, 1, 0)\nR (1, 2, 1)</title>
<path fill="none" stroke="#000000" d="M414.1081,-555.3289C442.3316,-547.0509 480.6832,-532.0743 506.3289,-507.2 548.315,-466.4768 571.8875,-400.5656 582.7781,-362.0074"/>
<polygon fill="#000000" stroke="#000000" points="586.2794,-362.4685 585.5183,-351.901 579.5234,-360.6366 586.2794,-362.4685"/>
</g>
<!-- L (1, 1, 0)\nR (2, 2, 1) -->
<g id="node19" class="node">
<title>L (1, 1, 0)\nR (2, 2, 1)</title>
<polygon fill="none" stroke="#000000" points="496.9869,-507.0019 423.6709,-507.0019 423.6709,-465.7981 496.9869,-465.7981 496.9869,-507.0019"/>
<text text-anchor="middle" x="460.3289" y="-490.6" font-family="Times,serif" font-size="14.00" fill="#000000">L (1, 1, 0)</text>
<text text-anchor="middle" x="460.3289" y="-473.8" font-family="Times,serif" font-size="14.00" fill="#000000">R (2, 2, 1)</text>
</g>
<!-- L (3, 1, 1)\nR (0, 2, 0)&#45;&gt;L (1, 1, 0)\nR (2, 2, 1) -->
<g id="edge13" class="edge">
<title>L (3, 1, 1)\nR (0, 2, 0)-&gt;L (1, 1, 0)\nR (2, 2, 1)</title>
<path fill="none" stroke="#000000" d="M399.5714,-543.2046C409.0611,-534.3323 420.277,-523.8461 430.4727,-514.3138"/>
<polygon fill="#000000" stroke="#000000" points="433.1106,-516.6389 438.025,-507.2528 428.33,-511.5256 433.1106,-516.6389"/>
</g>
<!-- L (1, 1, 0)\nR (2, 2, 1)&#45;&gt;L (1, 3, 1)\nR (2, 0, 0) -->
<g id="edge16" class="edge">
<title>L (1, 1, 0)\nR (2, 2, 1)-&gt;L (1, 3, 1)\nR (2, 0, 0)</title>
<path fill="none" stroke="#000000" d="M480.2841,-465.6415C489.241,-455.432 499.3409,-442.5552 506.3289,-429.6 532.7265,-380.6608 518.1941,-359.4801 544.3289,-310.4 549.5269,-300.6384 556.4611,-290.8833 563.3263,-282.2813"/>
<polygon fill="#000000" stroke="#000000" points="566.149,-284.3602 569.8283,-274.4247 560.7562,-279.8972 566.149,-284.3602"/>
</g>
<!-- L (1, 1, 0)\nR (2, 2, 1)&#45;&gt;L (1, 2, 1)\nR (2, 1, 0) -->
<g id="edge17" class="edge">
<title>L (1, 1, 0)\nR (2, 2, 1)-&gt;L (1, 2, 1)\nR (2, 1, 0)</title>
<path fill="none" stroke="#000000" d="M439.4424,-465.728C430.3964,-455.6349 420.4881,-442.8292 414.3289,-429.6 395.5292,-389.2207 395.3289,-375.7411 395.3289,-331.2 395.3289,-331.2 395.3289,-331.2 395.3289,-253.6 395.3289,-210.5768 395.3289,-160.8449 395.3289,-129.5105"/>
<polygon fill="#000000" stroke="#000000" points="398.829,-129.2356 395.3289,-119.2356 391.829,-129.2357 398.829,-129.2356"/>
</g>
<!-- L (1, 1, 0)\nR (2, 2, 1)&#45;&gt;L (2, 1, 1)\nR (1, 2, 0) -->
<g id="edge18" class="edge">
<title>L (1, 1, 0)\nR (2, 2, 1)-&gt;L (2, 1, 1)\nR (1, 2, 0)</title>
<path fill="none" stroke="#000000" d="M497.0069,-475.6793C553.4936,-456.6507 655.3289,-411.2455 655.3289,-331.2 655.3289,-331.2 655.3289,-331.2 655.3289,-253.6 655.3289,-210.547 660.358,-161.0098 664.1603,-129.7099"/>
<polygon fill="#000000" stroke="#000000" points="667.6766,-129.7967 665.4438,-119.4398 660.7306,-128.9286 667.6766,-129.7967"/>
</g>
<!-- L (2, 2, 1)\nR (1, 1, 0) -->
<g id="node20" class="node">
<title>L (2, 2, 1)\nR (1, 1, 0)</title>
<polygon fill="none" stroke="#000000" points="496.9869,-429.4019 423.6709,-429.4019 423.6709,-388.1981 496.9869,-388.1981 496.9869,-429.4019"/>
<text text-anchor="middle" x="460.3289" y="-413" font-family="Times,serif" font-size="14.00" fill="#000000">L (2, 2, 1)</text>
<text text-anchor="middle" x="460.3289" y="-396.2" font-family="Times,serif" font-size="14.00" fill="#000000">R (1, 1, 0)</text>
</g>
<!-- L (1, 1, 0)\nR (2, 2, 1)&#45;&gt;L (2, 2, 1)\nR (1, 1, 0) -->
<g id="edge15" class="edge">
<title>L (1, 1, 0)\nR (2, 2, 1)-&gt;L (2, 2, 1)\nR (1, 1, 0)</title>
<path fill="none" stroke="#000000" d="M460.3289,-465.6046C460.3289,-457.6891 460.3289,-448.4891 460.3289,-439.8278"/>
<polygon fill="#000000" stroke="#000000" points="463.829,-439.6527 460.3289,-429.6528 456.829,-439.6528 463.829,-439.6527"/>
</g>
<!-- L (2, 2, 1)\nR (1, 1, 0)&#45;&gt;L (1, 2, 0)\nR (2, 1, 1) -->
<g id="edge22" class="edge">
<title>L (2, 2, 1)\nR (1, 1, 0)-&gt;L (1, 2, 0)\nR (2, 1, 1)</title>
<path fill="none" stroke="#000000" d="M423.4724,-398.32C389.581,-388.3718 337.854,-372.4053 285.452,-352.2659"/>
<polygon fill="#000000" stroke="#000000" points="286.5982,-348.9564 276.0096,-348.5936 284.0609,-355.4804 286.5982,-348.9564"/>
</g>
<!-- L (2, 2, 1)\nR (1, 1, 0)&#45;&gt;L (2, 0, 0)\nR (1, 3, 1) -->
<g id="edge20" class="edge">
<title>L (2, 2, 1)\nR (1, 1, 0)-&gt;L (2, 0, 0)\nR (1, 3, 1)</title>
<path fill="none" stroke="#000000" d="M425.4913,-388.0046C409.7536,-378.6104 390.9847,-367.4069 374.291,-357.442"/>
<polygon fill="#000000" stroke="#000000" points="375.6432,-354.173 365.2627,-352.0528 372.0553,-360.1836 375.6432,-354.173"/>
</g>
<!-- L (2, 2, 1)\nR (1, 1, 0)&#45;&gt;L (2, 1, 0)\nR (1, 2, 1) -->
<g id="edge21" class="edge">
<title>L (2, 2, 1)\nR (1, 1, 0)-&gt;L (2, 1, 0)\nR (1, 2, 1)</title>
<path fill="none" stroke="#000000" d="M495.1665,-388.0046C510.9042,-378.6104 529.6731,-367.4069 546.3668,-357.442"/>
<polygon fill="#000000" stroke="#000000" points="548.6025,-360.1836 555.3951,-352.0528 545.0146,-354.173 548.6025,-360.1836"/>
</g>
<!-- L (0, 2, 0)\nR (3, 1, 1) -->
<g id="node21" class="node">
<title>L (0, 2, 0)\nR (3, 1, 1)</title>
<polygon fill="none" stroke="#000000" points="496.9869,-351.8019 423.6709,-351.8019 423.6709,-310.5981 496.9869,-310.5981 496.9869,-351.8019"/>
<text text-anchor="middle" x="460.3289" y="-335.4" font-family="Times,serif" font-size="14.00" fill="#000000">L (0, 2, 0)</text>
<text text-anchor="middle" x="460.3289" y="-318.6" font-family="Times,serif" font-size="14.00" fill="#000000">R (3, 1, 1)</text>
</g>
<!-- L (2, 2, 1)\nR (1, 1, 0)&#45;&gt;L (0, 2, 0)\nR (3, 1, 1) -->
<g id="edge19" class="edge">
<title>L (2, 2, 1)\nR (1, 1, 0)-&gt;L (0, 2, 0)\nR (3, 1, 1)</title>
<path fill="none" stroke="#000000" d="M460.3289,-388.0046C460.3289,-380.0891 460.3289,-370.8891 460.3289,-362.2278"/>
<polygon fill="#000000" stroke="#000000" points="463.829,-362.0527 460.3289,-352.0528 456.829,-362.0528 463.829,-362.0527"/>
</g>
<!-- L (0, 2, 0)\nR (3, 1, 1)&#45;&gt;L (1, 3, 1)\nR (2, 0, 0) -->
<g id="edge23" class="edge">
<title>L (0, 2, 0)\nR (3, 1, 1)-&gt;L (1, 3, 1)\nR (2, 0, 0)</title>
<path fill="none" stroke="#000000" d="M494.8985,-310.4046C510.5152,-301.0104 529.1396,-289.8069 545.7049,-279.842"/>
<polygon fill="#000000" stroke="#000000" points="547.8989,-282.6067 554.6638,-274.4528 544.2906,-276.6084 547.8989,-282.6067"/>
</g>
<!-- L (0, 2, 0)\nR (3, 1, 1)&#45;&gt;L (1, 2, 1)\nR (2, 1, 0) -->
<g id="edge25" class="edge">
<title>L (0, 2, 0)\nR (3, 1, 1)-&gt;L (1, 2, 1)\nR (2, 1, 0)</title>
<path fill="none" stroke="#000000" d="M454.5606,-310.5406C443.0689,-269.3827 417.2706,-176.985 403.8322,-128.855"/>
<polygon fill="#000000" stroke="#000000" points="407.1447,-127.7035 401.0843,-119.0131 400.4025,-129.586 407.1447,-127.7035"/>
</g>
<!-- L (0, 3, 1)\nR (3, 0, 0) -->
<g id="node22" class="node">
<title>L (0, 3, 1)\nR (3, 0, 0)</title>
<polygon fill="none" stroke="#000000" points="534.9869,-274.2019 461.6709,-274.2019 461.6709,-232.9981 534.9869,-232.9981 534.9869,-274.2019"/>
<text text-anchor="middle" x="498.3289" y="-257.8" font-family="Times,serif" font-size="14.00" fill="#000000">L (0, 3, 1)</text>
<text text-anchor="middle" x="498.3289" y="-241" font-family="Times,serif" font-size="14.00" fill="#000000">R (3, 0, 0)</text>
</g>
<!-- L (0, 2, 0)\nR (3, 1, 1)&#45;&gt;L (0, 3, 1)\nR (3, 0, 0) -->
<g id="edge24" class="edge">
<title>L (0, 2, 0)\nR (3, 1, 1)-&gt;L (0, 3, 1)\nR (3, 0, 0)</title>
<path fill="none" stroke="#000000" d="M470.5122,-310.4046C474.5587,-302.1412 479.2908,-292.4778 483.6926,-283.489"/>
<polygon fill="#000000" stroke="#000000" points="486.8629,-284.9731 488.1175,-274.4528 480.5762,-281.8945 486.8629,-284.9731"/>
</g>
<!-- L (0, 1, 0)\nR (3, 2, 1) -->
<g id="node23" class="node">
<title>L (0, 1, 0)\nR (3, 2, 1)</title>
<polygon fill="none" stroke="#000000" points="534.9869,-196.6019 461.6709,-196.6019 461.6709,-155.3981 534.9869,-155.3981 534.9869,-196.6019"/>
<text text-anchor="middle" x="498.3289" y="-180.2" font-family="Times,serif" font-size="14.00" fill="#000000">L (0, 1, 0)</text>
<text text-anchor="middle" x="498.3289" y="-163.4" font-family="Times,serif" font-size="14.00" fill="#000000">R (3, 2, 1)</text>
</g>
<!-- L (0, 3, 1)\nR (3, 0, 0)&#45;&gt;L (0, 1, 0)\nR (3, 2, 1) -->
<g id="edge26" class="edge">
<title>L (0, 3, 1)\nR (3, 0, 0)-&gt;L (0, 1, 0)\nR (3, 2, 1)</title>
<path fill="none" stroke="#000000" d="M498.3289,-232.8046C498.3289,-224.8891 498.3289,-215.6891 498.3289,-207.0278"/>
<polygon fill="#000000" stroke="#000000" points="501.829,-206.8527 498.3289,-196.8528 494.829,-206.8528 501.829,-206.8527"/>
</g>
<!-- L (0, 1, 0)\nR (3, 2, 1)&#45;&gt;L (1, 2, 1)\nR (2, 1, 0) -->
<g id="edge27" class="edge">
<title>L (0, 1, 0)\nR (3, 2, 1)-&gt;L (1, 2, 1)\nR (2, 1, 0)</title>
<path fill="none" stroke="#000000" d="M470.7268,-155.2046C458.604,-146.0714 444.2113,-135.2279 431.2664,-125.4752"/>
<polygon fill="#000000" stroke="#000000" points="433.1003,-122.4747 423.0072,-119.2528 428.8881,-128.0656 433.1003,-122.4747"/>
</g>
<!-- L (0, 1, 0)\nR (3, 2, 1)&#45;&gt;L (2, 1, 1)\nR (1, 2, 0) -->
<g id="edge28" class="edge">
<title>L (0, 1, 0)\nR (3, 2, 1)-&gt;L (2, 1, 1)\nR (1, 2, 0)</title>
<path fill="none" stroke="#000000" d="M535.0036,-159.4102C557.8854,-149.0426 588.1701,-135.2906 622.2703,-119.6759"/>
<polygon fill="#000000" stroke="#000000" points="623.8678,-122.7938 631.5009,-115.4462 620.9518,-116.4301 623.8678,-122.7938"/>
</g>
<!-- L (0, 2, 1)\nR (3, 1, 0) -->
<g id="node24" class="node">
<title>L (0, 2, 1)\nR (3, 1, 0)</title>
<polygon fill="none" stroke="#000000" points="522.9869,-119.0019 449.6709,-119.0019 449.6709,-77.7981 522.9869,-77.7981 522.9869,-119.0019"/>
<text text-anchor="middle" x="486.3289" y="-102.6" font-family="Times,serif" font-size="14.00" fill="#000000">L (0, 2, 1)</text>
<text text-anchor="middle" x="486.3289" y="-85.8" font-family="Times,serif" font-size="14.00" fill="#000000">R (3, 1, 0)</text>
</g>
<!-- L (0, 1, 0)\nR (3, 2, 1)&#45;&gt;L (0, 2, 1)\nR (3, 1, 0) -->
<g id="edge29" class="edge">
<title>L (0, 1, 0)\nR (3, 2, 1)-&gt;L (0, 2, 1)\nR (3, 1, 0)</title>
<path fill="none" stroke="#000000" d="M495.1131,-155.2046C493.8756,-147.2022 492.4351,-137.8867 491.0829,-129.1425"/>
<polygon fill="#000000" stroke="#000000" points="494.5408,-128.6004 489.5536,-119.2528 487.623,-129.6702 494.5408,-128.6004"/>
</g>
<!-- L (1, 1, 1)\nR (1, 2, 0) -->
<g id="node25" class="node">
<title>L (1, 1, 1)\nR (1, 2, 0)</title>
<polygon fill="none" stroke="#000000" points="613.9869,-119.0019 540.6709,-119.0019 540.6709,-77.7981 613.9869,-77.7981 613.9869,-119.0019"/>
<text text-anchor="middle" x="577.3289" y="-102.6" font-family="Times,serif" font-size="14.00" fill="#000000">L (1, 1, 1)</text>
<text text-anchor="middle" x="577.3289" y="-85.8" font-family="Times,serif" font-size="14.00" fill="#000000">R (1, 2, 0)</text>
</g>
<!-- L (0, 1, 0)\nR (3, 2, 1)&#45;&gt;L (1, 1, 1)\nR (1, 2, 0) -->
<g id="edge30" class="edge">
<title>L (0, 1, 0)\nR (3, 2, 1)-&gt;L (1, 1, 1)\nR (1, 2, 0)</title>
<path fill="none" stroke="#000000" d="M519.4995,-155.2046C528.5318,-146.3323 539.2072,-135.8461 548.9115,-126.3138"/>
<polygon fill="#000000" stroke="#000000" points="551.4185,-128.7573 556.0999,-119.2528 546.5132,-123.7635 551.4185,-128.7573"/>
</g>
<!-- L (0, 2, 1)\nR (3, 1, 0)&#45;&gt;L (0, 0, 0)\nR (3, 3, 1) -->
<g id="edge31" class="edge">
<title>L (0, 2, 1)\nR (3, 1, 0)-&gt;L (0, 0, 0)\nR (3, 3, 1)</title>
<path fill="none" stroke="#000000" d="M486.3289,-77.6046C486.3289,-69.6891 486.3289,-60.4891 486.3289,-51.8278"/>
<polygon fill="#000000" stroke="#000000" points="489.829,-51.6527 486.3289,-41.6528 482.829,-51.6528 489.829,-51.6527"/>
</g>
</g>
</svg>